# xmcd CD database file
#
# Track frame offsets:
#	150
#	37436
#	75883
#	109397
#	136846
#	161778
#	187062
#	210566
#
# Disc length: 3214 seconds
#
# Revision: 0
# Processed by: cddbd v1.5.1PL2 Copyright (c) Steve Scherf et al.
# Submitted via: CDex 1.51
#
DISCID=6f0c8c08
DTITLE=Linley Hamilton - Up to Now
DYEAR=2001
DGENRE=Jazz
TTITLE0=Skydive
TTITLE1=The Man I Love
TTITLE2=Navan Man
TTITLE3=Norwegian Wood
TTITLE4=Ceora
TTITLE5=This I Dig Of You
TTITLE6=Gibraltar
TTITLE7=Sidewinder
EXTD=YEAR: 2001
EXTT0=
EXTT1=
EXTT2=
EXTT3=
EXTT4=
EXTT5=
EXTT6=
EXTT7=
PLAYORDER=
